<svg xmlns="http://www.w3.org/2000/svg" viewBox="0 0 100 100">
  <!-- Amber Background Circle -->
  <circle cx="50" cy="50" r="50" fill="#f59e0b"/>
  
  <!-- Runner Paths from noun-sprint-4211610.svg -->
  <!-- Centered and colored Dark Slate (#1e293b) -->
  <g transform="translate(15, 11.5) scale(0.7)">
    <path fill="#1e293b" d="M64.7,24.8c5.9,2.6,12.8-0.1,15.3-6c2.6-5.9-0.1-12.8-6-15.3c-5.9-2.6-12.8,0.1-15.3,6C56.2,15.3,58.9,22.2,64.7,24.8z"/>
    <path fill="#1e293b" d="M81.3,42l-7.9,0.2l-4.8-9.1c-1-1.9-2.5-3.6-4.3-4.8l-6-4c-1.1-0.7-2.3-1.3-3.6-1.7l-14.2-4.1c-1.5-0.4-3.1-0.2-4.4,0.6     l-10.8,6.7c-2.6,1.6-3.3,4.9-1.8,7.5c1.6,2.6,4.9,3.3,7.5,1.8l8.7-5.4l5.1,1.5c-3.2,4.5-7,10.9-10,16.3c-1.7,3-3,7.6-0.8,13.1     L14.3,87.7c-2,2.8-1.4,6.6,1.4,8.6c1.1,0.8,2.4,1.2,3.6,1.2c1.9,0,3.8-0.9,5-2.6l19.5-27l8.3,5.3L45,84.1c-1.9,2.9-1,6.7,1.8,8.6     c1,0.7,2.2,1,3.4,1c2,0,4-1,5.2-2.8l10.5-16.1c0.9-1.4,1.2-3.1,0.9-4.7s-1.3-3-2.7-3.9l-12.7-8.1l10.7-13.9l3.2,6.1     c0.9,1.8,2.8,2.9,4.8,2.9c0.1,0,0.1,0,0.2,0l11.3-0.4c3-0.1,5.4-2.6,5.3-5.6C86.8,44.3,84.3,41.9,81.3,42z"/>
  </g>
</svg>
